<svg width="25" height="25" viewBox="0 0 25 25" fill="none" xmlns="http://www.w3.org/2000/svg">
<g clip-path="url(#clip0_1303_4229)">
<path d="M7.5301 0.583925C6.2533 0.644165 5.38138 0.847925 4.61914 1.14745C3.83026 1.45489 3.16162 1.86745 2.49634 2.53513C1.83106 3.20281 1.42138 3.87193 1.1161 4.66201C0.820659 5.42593 0.620499 6.29857 0.564099 7.57609C0.507699 8.85361 0.495219 9.26425 0.501459 12.523C0.507699 15.7817 0.522099 16.1902 0.584019 17.4703C0.644979 18.7469 0.848019 19.6186 1.14754 20.381C1.45546 21.1699 1.86754 21.8383 2.53546 22.5038C3.20338 23.1694 3.87202 23.5781 4.66402 23.8838C5.42722 24.1788 6.3001 24.3799 7.57738 24.4358C8.85466 24.4918 9.26578 24.5047 12.5235 24.4985C15.7813 24.4922 16.1915 24.4778 17.4714 24.4171C18.7513 24.3564 19.6184 24.1519 20.3811 23.8538C21.17 23.5452 21.8389 23.1338 22.5039 22.4657C23.169 21.7975 23.5784 21.1279 23.8835 20.3374C24.1791 19.5742 24.38 18.7013 24.4355 17.425C24.4914 16.1441 24.5046 15.7351 24.4983 12.4769C24.4921 9.21865 24.4775 8.81017 24.4167 7.53049C24.356 6.25081 24.1527 5.38177 23.8535 4.61881C23.5451 3.82993 23.1335 3.16201 22.4658 2.49601C21.7981 1.83001 21.128 1.42081 20.3377 1.11649C19.574 0.821045 18.7016 0.619685 17.4243 0.564485C16.1471 0.509285 15.7359 0.495125 12.477 0.501365C9.21802 0.507605 8.81002 0.521525 7.5301 0.583925ZM7.67026 22.277C6.50026 22.2262 5.86498 22.0318 5.44162 21.869C4.88098 21.653 4.48162 21.3919 4.0597 20.9741C3.63778 20.5562 3.37858 20.1554 3.1597 19.596C2.9953 19.1726 2.7973 18.5381 2.74258 17.3681C2.68306 16.1035 2.67058 15.7238 2.66362 12.5201C2.65666 9.31633 2.6689 8.93713 2.72434 7.67209C2.77426 6.50305 2.96986 5.86705 3.13234 5.44393C3.34834 4.88257 3.6085 4.48393 4.0273 4.06225C4.4461 3.64057 4.8457 3.38089 5.40562 3.16201C5.8285 2.99689 6.46306 2.80057 7.63258 2.74489C8.8981 2.68489 9.2773 2.67289 12.4806 2.66593C15.6839 2.65897 16.064 2.67097 17.33 2.72665C18.4991 2.77753 19.1353 2.97121 19.5579 3.13465C20.1188 3.35065 20.5179 3.61009 20.9396 4.02961C21.3613 4.44913 21.6212 4.84729 21.8401 5.40841C22.0055 5.83009 22.2018 6.46441 22.257 7.63465C22.3172 8.90017 22.3309 9.27961 22.3367 12.4826C22.3424 15.6857 22.3311 16.0661 22.2757 17.3306C22.2246 18.5006 22.0307 19.1362 21.8677 19.56C21.6517 20.1204 21.3913 20.52 20.9723 20.9414C20.5532 21.3629 20.1541 21.6226 19.5939 21.8414C19.1715 22.0063 18.5363 22.2031 17.3677 22.2588C16.1022 22.3183 15.723 22.3308 12.5185 22.3378C9.31402 22.3447 8.93578 22.3318 7.67026 22.277ZM17.4529 6.08641C17.4534 6.37123 17.5383 6.64952 17.697 6.88607C17.8556 7.12262 18.0808 7.30682 18.3442 7.41535C18.6075 7.52389 18.8971 7.5519 19.1764 7.49583C19.4556 7.43976 19.712 7.30214 19.913 7.10037C20.114 6.8986 20.2507 6.64174 20.3058 6.36228C20.3608 6.08283 20.3317 5.79333 20.2222 5.53039C20.1127 5.26746 19.9277 5.0429 19.6906 4.88512C19.4534 4.72735 19.1748 4.64344 18.89 4.64401C18.5082 4.64477 18.1423 4.79715 17.8728 5.06764C17.6033 5.33813 17.4523 5.70458 17.4529 6.08641ZM6.3385 12.5119C6.34522 15.9151 9.10906 18.6677 12.5115 18.6612C15.914 18.6547 18.6685 15.8911 18.662 12.4879C18.6555 9.08473 15.891 6.33145 12.488 6.33817C9.08506 6.34489 6.33202 9.10921 6.3385 12.5119ZM8.49994 12.5076C8.49837 11.7165 8.73145 10.9426 9.16968 10.284C9.60791 9.62528 10.2316 9.11134 10.9619 8.80714C11.6923 8.50294 12.4964 8.42213 13.2726 8.57494C14.0489 8.72775 14.7624 9.1073 15.3229 9.66562C15.8834 10.2239 16.2658 10.9359 16.4217 11.7115C16.5776 12.4872 16.4999 13.2916 16.1986 14.0231C15.8973 14.7547 15.3859 15.3804 14.7289 15.8212C14.072 16.2621 13.2991 16.4982 12.5079 16.4998C11.9826 16.5009 11.4622 16.3985 10.9765 16.1984C10.4908 15.9984 10.0492 15.7046 9.67699 15.3339C9.3048 14.9632 9.00929 14.5228 8.80733 14.0378C8.60537 13.5529 8.50092 13.0329 8.49994 12.5076Z" fill="white"/>
</g>
<defs>
<clipPath id="clip0_1303_4229">
<rect width="24" height="24" fill="white" transform="translate(0.5 0.5)"/>
</clipPath>
</defs>
</svg>
