<svg width="25" height="24" viewBox="0 0 25 24" fill="none" xmlns="http://www.w3.org/2000/svg">
<path d="M15.5 3.75001C16.4577 3.75001 16.8492 3.75234 17.1648 3.80233C18.9834 4.09036 20.4096 5.51662 20.6977 7.33516C20.7477 7.65083 20.75 8.04234 20.75 9.00001V15C20.75 15.9577 20.7477 16.3492 20.6977 16.6649C20.4096 18.4834 18.9834 19.9097 17.1648 20.1977C16.8492 20.2477 16.4577 20.25 15.5 20.25H14.5C13.5424 20.25 12.6607 19.9342 11.9504 19.4007C11.6192 19.1519 11.1491 19.2188 10.9003 19.5499C10.6516 19.8811 10.7184 20.3513 11.0496 20.6C12.0106 21.3219 13.2064 21.75 14.5 21.75L15.5809 21.75C16.4329 21.7501 16.9518 21.7501 17.3995 21.6792C19.8599 21.2895 21.7895 19.3599 22.1792 16.8995C22.2501 16.4518 22.2501 15.9328 22.25 15.0808V8.91921C22.2501 8.06718 22.2501 7.54819 22.1792 7.10051C21.7895 4.64013 19.8599 2.71049 17.3995 2.3208C16.9518 2.2499 16.4329 2.24994 15.5809 2.25L14.5 2.25001C13.2064 2.25001 12.0106 2.67807 11.0496 3.39997C10.7184 3.64874 10.6516 4.11889 10.9003 4.45008C11.1491 4.78127 11.6192 4.84808 11.9504 4.59932C12.6607 4.06583 13.5424 3.75001 14.5 3.75001H15.5Z" fill="#434343"/>
<path d="M13.966 7.41233C13.6414 7.15498 13.1697 7.20947 12.9123 7.53404C12.655 7.85861 12.7095 8.33034 13.034 8.58769L14.797 9.98554C15.501 10.5438 15.983 10.9274 16.3105 11.25L3.5 11.25C3.08579 11.25 2.75 11.5858 2.75 12C2.75 12.4142 3.08579 12.75 3.5 12.75L16.3105 12.75C15.983 13.0727 15.501 13.4563 14.797 14.0145L13.034 15.4123C12.7095 15.6697 12.655 16.1414 12.9123 16.466C13.1697 16.7905 13.6414 16.845 13.966 16.5877L15.7648 15.1614C16.4373 14.6283 16.9922 14.1883 17.3875 13.7945C17.7932 13.3904 18.1294 12.9419 18.2208 12.3687C18.2402 12.2466 18.25 12.1234 18.25 12C18.25 11.8766 18.2402 11.7534 18.2208 11.6313C18.1294 11.0582 17.7932 10.6096 17.3875 10.2055C16.9922 9.81173 16.4373 9.37176 15.7648 8.83858L13.966 7.41233Z" fill="#434343"/>
</svg>
