<svg width="25" height="25" viewBox="0 0 25 25" fill="none" xmlns="http://www.w3.org/2000/svg">
<g clip-path="url(#clip0_1303_4232)">
<path d="M12.5 0.5C5.87284 0.5 0.5 5.87284 0.5 12.5C0.5 17.5864 3.66049 21.9321 8.12469 23.6802C8.01605 22.7321 7.92716 21.2704 8.1642 20.2333C8.38148 19.2951 9.56667 14.2679 9.56667 14.2679C9.56667 14.2679 9.21111 13.5469 9.21111 12.4901C9.21111 10.821 10.179 9.57654 11.384 9.57654C12.4111 9.57654 12.9049 10.3469 12.9049 11.2654C12.9049 12.2926 12.2531 13.8333 11.9074 15.2654C11.621 16.4605 12.5099 17.4383 13.6852 17.4383C15.8185 17.4383 17.458 15.1864 17.458 11.9469C17.458 9.07284 15.3938 7.0679 12.4407 7.0679C9.02346 7.0679 7.01852 9.62593 7.01852 12.2728C7.01852 13.3 7.41358 14.4062 7.90741 15.0086C8.00617 15.1272 8.01605 15.2358 7.98642 15.3543C7.89753 15.7296 7.69012 16.5494 7.65062 16.7173C7.60123 16.9346 7.47284 16.984 7.24568 16.8753C5.74444 16.1741 4.80617 13.9914 4.80617 12.2235C4.80617 8.44074 7.55185 4.9642 12.737 4.9642C16.8951 4.9642 20.1346 7.92716 20.1346 11.8975C20.1346 16.0358 17.5272 19.3642 13.9123 19.3642C12.6975 19.3642 11.5519 18.7321 11.1667 17.9815C11.1667 17.9815 10.5642 20.2728 10.416 20.8358C10.1494 21.8827 9.41852 23.1864 8.92469 23.9864C10.0506 24.3321 11.2358 24.5198 12.4802 24.5198C19.1074 24.5198 24.4802 19.1469 24.4802 12.5198C24.5 5.87284 19.1272 0.5 12.5 0.5Z" fill="white"/>
</g>
<defs>
<clipPath id="clip0_1303_4232">
<rect width="24" height="24" fill="white" transform="translate(0.5 0.5)"/>
</clipPath>
</defs>
</svg>
