<svg width="59" height="16" viewBox="0 0 59 16" fill="none" xmlns="http://www.w3.org/2000/svg">
<path d="M53.1871 4.53963C53.9365 5.10648 54.4697 5.64451 54.7867 6.15372C55.1134 6.65332 55.2767 7.19615 55.2767 7.78222C55.2767 8.45475 55.1134 9.09847 54.7867 9.71336C54.4601 10.3283 53.9749 10.7894 53.3312 11.0969C52.9565 11.2698 52.5722 11.3851 52.1782 11.4427C51.7939 11.5004 51.3616 11.5292 50.8812 11.5292C50.8332 11.5292 50.7851 11.4187 50.7371 11.1977C50.6891 10.9672 50.665 10.6453 50.665 10.2322C50.665 9.57885 50.7227 9.12729 50.838 8.87749C50.9437 8.62769 51.0542 8.50279 51.1694 8.50279C51.7651 8.50279 52.2359 8.45475 52.5818 8.35868C52.9373 8.2626 53.115 8.14251 53.115 7.99839C53.115 7.81584 52.9324 7.52761 52.5674 7.1337C52.2023 6.73978 51.5682 6.23538 50.665 5.62049L51.1694 3.02642L58.159 0L58.5914 2.30584L53.1871 4.53963Z" fill="#A72F3B"/>
<path d="M50.8779 11.5292C49.821 11.5292 48.9899 11.2458 48.3847 10.6789C47.7794 10.1025 47.4575 9.20896 47.4191 7.99839L47.1309 0.216172L49.5808 0C49.5712 0.922337 49.5568 2.14251 49.5376 3.66052C49.528 5.16893 49.5184 6.08646 49.5088 6.41312C49.5088 7.15292 49.6337 7.68614 49.8835 8.0128C50.1429 8.33946 50.5704 8.50279 51.1661 8.50279L50.8779 11.5292Z" fill="black"/>
<path d="M45.4669 4.61145C45.659 5.95653 45.7551 7.06141 45.7551 7.9261C45.7551 9.04059 45.5197 9.91969 45.0489 10.5634C44.5878 11.2071 43.9585 11.529 43.161 11.529C42.5365 11.529 42.0129 11.4329 41.5902 11.2407C41.1674 11.039 40.8744 10.7844 40.7111 10.4769C40.5381 10.8036 40.2691 11.063 39.904 11.2552C39.5389 11.4377 39.1354 11.529 38.6934 11.529C38.1746 11.529 37.7423 11.4329 37.3964 11.2407C37.0505 11.039 36.8248 10.7652 36.7191 10.4193C36.4885 10.8132 36.1474 11.0966 35.6959 11.2696C35.2539 11.4425 34.6438 11.529 33.8656 11.529C33.8175 11.529 33.7695 11.4185 33.7215 11.1975C33.6734 10.9669 33.6494 10.6451 33.6494 10.2319C33.6494 9.57862 33.7071 9.12706 33.8224 8.87726C33.928 8.62746 34.0385 8.50256 34.1538 8.50256C34.7879 8.50256 35.2587 8.41609 35.5661 8.24315C35.8736 8.07021 36.0273 7.77238 36.0273 7.34964V6.34083L37.9008 6.19672V7.20552C37.9008 8.07021 38.2371 8.50256 38.9096 8.50256C39.2363 8.50256 39.4861 8.40168 39.659 8.19992C39.832 7.99816 39.9184 7.71473 39.9184 7.34964V6.48495L41.7919 6.34083V7.20552C41.7919 7.63787 41.912 7.96453 42.1522 8.18551C42.402 8.39688 42.7623 8.50256 43.2331 8.50256C43.4733 8.50256 43.5934 8.40648 43.5934 8.21433C43.5934 7.98374 43.5549 7.60905 43.4781 7.09023C43.4012 6.56181 43.2955 5.95172 43.161 5.25997L45.4669 4.61145Z" fill="black"/>
<path d="M33.8659 11.5291C33.2126 11.5291 32.6601 11.4186 32.2086 11.1976C31.7666 10.967 31.4736 10.6548 31.3295 10.2608C31.1085 10.6548 30.729 10.967 30.191 11.1976C29.6529 11.4186 28.9804 11.5291 28.1733 11.5291H27.8851C27.8371 11.5291 27.789 11.4186 27.741 11.1976C27.693 10.967 27.6689 10.6451 27.6689 10.232C27.6689 9.57869 27.7266 9.12713 27.8419 8.87733C27.9476 8.62753 28.0581 8.50263 28.1733 8.50263H28.4616C29.3071 8.50263 29.8883 8.36813 30.2054 8.09911C30.532 7.8301 30.6954 7.43618 30.6954 6.91737V5.90856L32.5689 5.76445V6.84531C32.5689 7.44099 32.6938 7.86853 32.9436 8.12793C33.203 8.37773 33.6065 8.50263 34.1541 8.50263L33.8659 11.5291ZM30.5512 2.66597H30.6954H33.0733V4.61152H30.6954H30.5512H28.1733V2.66597H30.5512Z" fill="black"/>
<path d="M27.2674 11.5295C26.9792 12.7113 26.297 13.6 25.2209 14.1957C24.5676 14.5512 23.7654 14.8394 22.8142 15.0604C21.8631 15.2909 20.7198 15.4591 19.3843 15.5648C19.2594 14.9403 19.0913 14.0516 18.8799 12.8986C21.1665 12.7449 22.8238 12.5287 23.8519 12.2501C24.8895 11.9715 25.4611 11.6352 25.5668 11.2413C24.8559 11.3374 24.1161 11.3854 23.3475 11.3854C22.5981 11.3854 22.0264 11.1837 21.6325 10.7801C21.2386 10.3766 21.0416 9.80976 21.0416 9.07958C21.0416 8.30136 21.1761 7.56157 21.4451 6.86021C21.7238 6.14924 22.1033 5.57278 22.5836 5.13083C23.064 4.68887 23.6069 4.4679 24.2121 4.4679C25.0384 4.4679 25.735 4.81858 26.3018 5.51994C26.8687 6.21169 27.229 7.20608 27.3827 8.50312H28.1753L27.8871 11.5295H27.2674ZM22.8431 7.99872C22.8431 8.19087 22.9103 8.33499 23.0448 8.43106C23.1889 8.52714 23.4339 8.57518 23.7798 8.57518L25.3362 8.54635C25.0768 7.50873 24.582 6.98991 23.8519 6.98991C23.5828 6.98991 23.3475 7.1004 23.1457 7.32138C22.9439 7.54235 22.8431 7.76813 22.8431 7.99872Z" fill="black"/>
<path d="M17.2197 4.25119C17.7577 4.25119 18.1901 4.40011 18.5167 4.69795C18.8434 4.98618 19.0836 5.43774 19.2373 6.05263C19.3142 6.35047 19.3814 6.72036 19.4391 7.16232C19.4967 7.59466 19.5255 7.96936 19.5255 8.28641C19.5255 8.87248 19.415 9.42492 19.1941 9.94374C18.9731 10.4626 18.6801 10.8805 18.315 11.1975C17.9595 11.5146 17.5944 11.6731 17.2197 11.6731C16.5952 11.6731 15.9707 11.529 15.3462 11.2408C14.7217 10.9525 14.2893 10.6307 14.0492 10.2752C13.7033 10.7364 13.3334 11.063 12.9395 11.2552C12.5455 11.4377 12.1228 11.529 11.6713 11.529C11.6232 11.529 11.5752 11.4185 11.5271 11.1975C11.4791 10.967 11.4551 10.6451 11.4551 10.232C11.4551 9.57865 11.5127 9.12709 11.628 8.87729C11.7337 8.62749 11.8442 8.50259 11.9595 8.50259C12.2573 8.50259 12.4975 8.46896 12.6801 8.40171C12.8722 8.32484 13.0451 8.19514 13.1989 8.0126C13.3622 7.82044 13.5496 7.52741 13.7609 7.13349C14.1837 6.36488 14.5584 5.77881 14.885 5.37529C15.2117 4.96216 15.5528 4.67393 15.9082 4.5106C16.2733 4.33766 16.7105 4.25119 17.2197 4.25119ZM15.303 7.82525C15.4086 8.00779 15.6969 8.19034 16.1676 8.37288C16.6384 8.55543 17.0612 8.6467 17.4359 8.6467C17.5704 8.6467 17.6376 8.57465 17.6376 8.43053C17.6376 8.2672 17.6136 8.06544 17.5656 7.82525C17.5271 7.57545 17.4839 7.36888 17.4359 7.20555C17.3302 6.86928 17.138 6.70115 16.8594 6.70115C16.6096 6.70115 16.403 6.72997 16.2397 6.78762C16.0764 6.84526 15.9226 6.95575 15.7785 7.11908C15.644 7.2728 15.4855 7.50819 15.303 7.82525Z" fill="black"/>
<path d="M11.0969 11.5289C11.0969 12.0285 10.9768 12.5041 10.7366 12.9557C10.506 13.4072 10.1697 13.8204 9.72777 14.1951C9.21857 14.637 8.48358 14.9973 7.52281 15.2759C6.56204 15.5642 5.56765 15.7083 4.53963 15.7083C3.02161 15.7083 1.8831 15.396 1.1241 14.7715C0.374699 14.1566 0 13.2199 0 11.9613C0 10.8084 0.28823 9.29514 0.864691 7.42165L2.66613 7.92605C2.48358 8.6178 2.35388 9.17985 2.27702 9.6122C2.20016 10.0349 2.16173 10.4096 2.16173 10.7363C2.16173 11.3704 2.38751 11.8508 2.83907 12.1774C3.30024 12.5137 4.03522 12.6818 5.04403 12.6818C5.78382 12.6818 6.45636 12.6242 7.06164 12.5089C7.66693 12.4032 8.14251 12.2687 8.48838 12.1054C8.83426 11.9421 9.0072 11.7979 9.0072 11.673C9.0072 11.5962 8.91592 11.5289 8.73338 11.4713C8.55083 11.404 8.21456 11.332 7.72457 11.2551C7.23458 11.1782 6.5092 11.0774 5.54843 10.9525L6.05284 8.43045C7.10968 8.47849 8.767 8.50251 11.0248 8.50251H11.9616L11.6733 11.5289H11.0969Z" fill="black"/>
</svg>
