<svg width="118" height="118" viewBox="0 0 118 118" fill="none" xmlns="http://www.w3.org/2000/svg">
<g clip-path="url(#clip0_3696_28444)">
<rect width="118" height="118" rx="59" fill="black"/>
<path d="M54.546 42.0177C64.8059 49.6324 72.1062 56.8599 76.4469 63.7002C80.9191 70.4114 83.1552 77.7034 83.1552 85.5762C83.1552 94.6106 80.9191 103.258 76.4469 111.518C71.9746 119.778 65.332 125.973 56.519 130.103C51.3891 132.426 46.1276 133.975 40.7346 134.749C35.4732 135.523 29.554 135.911 22.9771 135.911C22.3195 135.911 21.6618 134.426 21.0041 131.458C20.3464 128.36 20.0176 124.037 20.0176 118.487C20.0176 109.711 20.8068 103.645 22.3853 100.289C23.8322 96.9338 25.3448 95.2559 26.9233 95.2559C35.0785 95.2559 41.5238 94.6106 46.2592 93.32C51.126 92.0294 53.5595 90.4161 53.5595 88.4802C53.5595 86.028 51.0602 82.1561 46.0618 76.8645C41.0634 71.573 32.382 64.7972 20.0176 56.5372L26.9233 21.6903L122.616 -18.9644L128.535 12.0106L54.546 42.0177Z" fill="#242424"/>
<path d="M57.1327 50.3014C62.2129 54.0829 65.8276 57.672 67.9769 61.0689C70.1913 64.4017 71.2985 68.0229 71.2985 71.9326C71.2985 76.419 70.1913 80.7132 67.9769 84.8151C65.7624 88.917 62.4734 91.9934 58.1097 94.0444C55.5696 95.198 52.9644 95.9672 50.2941 96.3517C47.6889 96.7363 44.758 96.9285 41.5016 96.9285C41.1759 96.9285 40.8503 96.1915 40.5246 94.7174C40.199 93.1791 40.0361 91.032 40.0361 88.2761C40.0361 83.9178 40.4269 80.9055 41.2085 79.2391C41.9249 77.5727 42.6739 76.7395 43.4555 76.7395C47.4935 76.7395 50.6849 76.419 53.0295 75.7781C55.4393 75.1372 56.6442 74.336 56.6442 73.3746C56.6442 72.1569 55.4068 70.2341 52.9318 67.6063C50.4569 64.9785 46.1583 61.6137 40.0361 57.5118L43.4555 40.2069L90.8374 20.0178L93.7683 35.4L57.1327 50.3014Z" fill="#A72F3B"/>
</g>
<defs>
<clipPath id="clip0_3696_28444">
<rect width="118" height="118" rx="59" fill="white"/>
</clipPath>
</defs>
</svg>
